<svg width="14" height="12" viewBox="0 0 14 12" fill="none" xmlns="http://www.w3.org/2000/svg">
<path d="M12.8333 0.555542H1.16667C0.522569 0.555542 0 1.07811 0 1.72221V10.2778C0 10.9219 0.522569 11.4444 1.16667 11.4444H12.8333C13.4774 11.4444 14 10.9219 14 10.2778V1.72221C14 1.07811 13.4774 0.555542 12.8333 0.555542ZM4.27778 2.88888C5.13576 2.88888 5.83333 3.58644 5.83333 4.44443C5.83333 5.30242 5.13576 5.99999 4.27778 5.99999C3.41979 5.99999 2.72222 5.30242 2.72222 4.44443C2.72222 3.58644 3.41979 2.88888 4.27778 2.88888ZM7 8.64443C7 8.90207 6.75694 9.1111 6.45556 9.1111H2.1C1.79861 9.1111 1.55556 8.90207 1.55556 8.64443V8.17776C1.55556 7.40485 2.28715 6.77776 3.18889 6.77776H3.31042C3.60938 6.90172 3.93507 6.97221 4.27778 6.97221C4.62049 6.97221 4.94861 6.90172 5.24514 6.77776H5.36667C6.2684 6.77776 7 7.40485 7 8.17776V8.64443ZM12.4444 7.3611C12.4444 7.46804 12.3569 7.55554 12.25 7.55554H8.75C8.64306 7.55554 8.55556 7.46804 8.55556 7.3611V6.97221C8.55556 6.86526 8.64306 6.77776 8.75 6.77776H12.25C12.3569 6.77776 12.4444 6.86526 12.4444 6.97221V7.3611ZM12.4444 5.80554C12.4444 5.91249 12.3569 5.99999 12.25 5.99999H8.75C8.64306 5.99999 8.55556 5.91249 8.55556 5.80554V5.41665C8.55556 5.30971 8.64306 5.22221 8.75 5.22221H12.25C12.3569 5.22221 12.4444 5.30971 12.4444 5.41665V5.80554ZM12.4444 4.24999C12.4444 4.35693 12.3569 4.44443 12.25 4.44443H8.75C8.64306 4.44443 8.55556 4.35693 8.55556 4.24999V3.8611C8.55556 3.75415 8.64306 3.66665 8.75 3.66665H12.25C12.3569 3.66665 12.4444 3.75415 12.4444 3.8611V4.24999Z" fill="white"/>
</svg>
