<svg width="16" height="7" viewBox="0 0 16 7" fill="none" xmlns="http://www.w3.org/2000/svg">
<path d="M4.78125 3.65625C4.78125 4.08333 4.86458 4.48177 5.03125 4.85156C5.19792 5.22135 5.42708 5.54688 5.71875 5.82812C6.01042 6.10938 6.35156 6.32812 6.74219 6.48438C7.13281 6.64062 7.55208 6.71875 8 6.71875C8.44792 6.71875 8.86719 6.64062 9.25781 6.48438C9.64844 6.32812 9.98958 6.10938 10.2812 5.82812C10.5729 5.54688 10.8021 5.22135 10.9688 4.85156C11.1354 4.48177 11.2188 4.08333 11.2188 3.65625C11.2188 3.29167 11.151 2.94271 11.0156 2.60938C10.8802 2.27604 10.6875 1.97396 10.4375 1.70312C11.2396 1.89062 11.9818 2.13542 12.6641 2.4375C13.3464 2.73958 13.9323 3.03646 14.4219 3.32812C14.9115 3.61979 15.2969 3.86979 15.5781 4.07812C15.8594 4.28646 16 4.39062 16 4.39062V2.96875C16 2.96875 15.7891 2.8151 15.3672 2.50781C14.9453 2.20052 14.375 1.85938 13.6562 1.48438C12.9375 1.10938 12.0938 0.768229 11.125 0.460938C10.1562 0.153646 9.13021 0 8.04688 0C6.96354 0 5.9349 0.153646 4.96094 0.460938C3.98698 0.768229 3.13281 1.10938 2.39844 1.48438C1.66406 1.85938 1.08073 2.20052 0.648438 2.50781C0.216146 2.8151 0 2.96875 0 2.96875V4.39062C0 4.39062 0.138021 4.28906 0.414062 4.08594C0.690104 3.88281 1.07552 3.63802 1.57031 3.35156C2.0651 3.0651 2.64844 2.77083 3.32031 2.46875C3.99219 2.16667 4.72396 1.91667 5.51562 1.71875C5.28646 1.98958 5.10677 2.28906 4.97656 2.61719C4.84635 2.94531 4.78125 3.29167 4.78125 3.65625Z" fill="#2C2C2C"/>
</svg>
