<svg width="18" height="19" viewBox="0 0 18 19" fill="none" xmlns="http://www.w3.org/2000/svg">
<path d="M17 0H1C0.734784 0 0.48043 0.105357 0.292893 0.292893C0.105357 0.48043 0 0.734784 0 1V3.227L0.0079999 3.45C0.0578081 4.11772 0.329563 4.74958 0.78 5.245L5 9.886V18C4.99996 18.1585 5.03758 18.3146 5.10975 18.4557C5.18192 18.5968 5.28657 18.7187 5.41509 18.8113C5.54362 18.904 5.69232 18.9648 5.84895 18.9888C6.00559 19.0127 6.16567 18.9991 6.316 18.949L12.316 16.949L12.424 16.906C12.5962 16.8254 12.7419 16.6973 12.8439 16.5369C12.9459 16.3764 13.0001 16.1902 13 16V9.414L17.121 5.294C17.3998 5.01525 17.621 4.68427 17.7718 4.31999C17.9226 3.95571 18.0002 3.56527 18 3.171V1C18 0.734784 17.8946 0.48043 17.7071 0.292893C17.5196 0.105357 17.2652 0 17 0Z" fill="black"/>
</svg>
