<svg width="14" height="16" viewBox="0 0 14 16" fill="none" xmlns="http://www.w3.org/2000/svg">
<g clip-path="url(#clip0_85_2287)">
<path d="M7.31305 0C4.8187 0 3.20311 1.02197 1.9347 2.84456C1.70461 3.17519 1.77555 3.6285 2.09652 3.87188L3.44458 4.89403C3.76874 5.13981 4.22995 5.08234 4.48374 4.76441C5.26652 3.78375 5.84717 3.21913 7.06989 3.21913C8.03127 3.21913 9.22039 3.83784 9.22039 4.77009C9.22039 5.47484 8.63861 5.83678 7.68936 6.36897C6.58239 6.98959 5.11752 7.76197 5.11752 9.69413V10C5.11752 10.4142 5.4533 10.75 5.86752 10.75H8.13224C8.54645 10.75 8.88224 10.4142 8.88224 10V9.81959C8.88224 8.48022 12.7969 8.42444 12.7969 4.8C12.7969 2.0705 9.96558 0 7.31305 0ZM6.99989 11.6706C5.80627 11.6706 4.83517 12.6417 4.83517 13.8353C4.83517 15.0289 5.80627 16 6.99989 16C8.19352 16 9.16461 15.0289 9.16461 13.8353C9.16461 12.6417 8.19352 11.6706 6.99989 11.6706Z" fill="white"/>
</g>
<defs>
<clipPath id="clip0_85_2287">
<rect width="14" height="16" fill="white"/>
</clipPath>
</defs>
</svg>
