<svg width="19" height="18" viewBox="0 0 19 18" fill="none" xmlns="http://www.w3.org/2000/svg">
<path d="M2.91973 0.0341797H15.5197C16.2358 0.0341797 16.9226 0.316883 17.4289 0.820098C17.9353 1.32331 18.2197 2.00582 18.2197 2.71747V9.87292C18.2197 10.5846 17.9353 11.2671 17.4289 11.7703C16.9226 12.2735 16.2358 12.5562 15.5197 12.5562H9.25753L3.45793 16.8566C3.32409 16.9559 3.1651 17.0162 2.99876 17.0307C2.83242 17.0453 2.66527 17.0136 2.51603 16.9391C2.36678 16.8647 2.24132 16.7505 2.15367 16.6092C2.06602 16.468 2.01964 16.3053 2.01973 16.1393V12.5562C1.54234 12.5562 1.0845 12.3677 0.746934 12.0323C0.409369 11.6968 0.219727 11.2418 0.219727 10.7673V2.71747C0.219727 2.00582 0.50419 1.32331 1.01054 0.820098C1.51689 0.316883 2.20364 0.0341797 2.91973 0.0341797ZM8.65993 10.7673H15.5197C15.7584 10.7673 15.9873 10.6731 16.1561 10.5054C16.3249 10.3376 16.4197 10.1101 16.4197 9.87292V2.71747C16.4197 2.48025 16.3249 2.25275 16.1561 2.08501C15.9873 1.91728 15.7584 1.82304 15.5197 1.82304H2.91973C2.68103 1.82304 2.45211 1.91728 2.28333 2.08501C2.11455 2.25275 2.01973 2.48025 2.01973 2.71747V9.87292C2.01973 10.1101 2.11455 10.3376 2.28333 10.5054C2.45211 10.6731 2.68103 10.7673 2.91973 10.7673C3.15842 10.7673 3.38734 10.8616 3.55612 11.0293C3.72491 11.1971 3.81973 11.4246 3.81973 11.6618V14.3567L8.65993 10.7673ZM11.9197 8.08405C11.4423 8.08405 10.9845 7.89559 10.6469 7.56011C10.3094 7.22463 10.1197 6.76963 10.1197 6.29519C10.1197 5.82076 10.3094 5.36575 10.6469 5.03028C10.9845 4.6948 11.4423 4.50633 11.9197 4.50633C12.3971 4.50633 12.855 4.6948 13.1925 5.03028C13.5301 5.36575 13.7197 5.82076 13.7197 6.29519C13.7197 6.76963 13.5301 7.22463 13.1925 7.56011C12.855 7.89559 12.3971 8.08405 11.9197 8.08405ZM6.51973 8.08405C6.04234 8.08405 5.5845 7.89559 5.24693 7.56011C4.90937 7.22463 4.71973 6.76963 4.71973 6.29519C4.71973 5.82076 4.90937 5.36575 5.24693 5.03028C5.5845 4.6948 6.04234 4.50633 6.51973 4.50633C6.99712 4.50633 7.45495 4.6948 7.79252 5.03028C8.13008 5.36575 8.31973 5.82076 8.31973 6.29519C8.31973 6.76963 8.13008 7.22463 7.79252 7.56011C7.45495 7.89559 6.99712 8.08405 6.51973 8.08405Z" fill="white"/>
</svg>
