<svg width="14" height="16" viewBox="0 0 14 16" fill="none" xmlns="http://www.w3.org/2000/svg">
<g clip-path="url(#clip0_85_2272)">
<path d="M13.475 6.59999H10.5V2.92499C10.5 2.63493 10.2651 2.39999 9.975 2.39999H6.825C6.53494 2.39999 6.3 2.63493 6.3 2.92499V4.49999H4.9V2.74999C4.9 2.55662 4.74337 2.39999 4.55 2.39999H4.2C4.00662 2.39999 3.85 2.55662 3.85 2.74999V4.49999H2.45V2.74999C2.45 2.55662 2.29338 2.39999 2.1 2.39999H1.75C1.55663 2.39999 1.4 2.55662 1.4 2.74999V4.49999H0.525C0.234937 4.49999 0 4.73493 0 5.02499V12.9C0 13.2865 0.313469 13.6 0.7 13.6H13.3C13.6865 13.6 14 13.2865 14 12.9V7.12499C14 6.83493 13.7648 6.59999 13.475 6.59999ZM2.8 11.2375C2.8 11.3825 2.68253 11.5 2.5375 11.5H1.6625C1.51747 11.5 1.4 11.3825 1.4 11.2375V10.3625C1.4 10.2175 1.51747 10.1 1.6625 10.1H2.5375C2.68253 10.1 2.8 10.2175 2.8 10.3625V11.2375ZM2.8 9.13749C2.8 9.28253 2.68253 9.39999 2.5375 9.39999H1.6625C1.51747 9.39999 1.4 9.28253 1.4 9.13749V8.26249C1.4 8.11746 1.51747 7.99999 1.6625 7.99999H2.5375C2.68253 7.99999 2.8 8.11746 2.8 8.26249V9.13749ZM2.8 7.03749C2.8 7.18253 2.68253 7.29999 2.5375 7.29999H1.6625C1.51747 7.29999 1.4 7.18253 1.4 7.03749V6.16249C1.4 6.01746 1.51747 5.89999 1.6625 5.89999H2.5375C2.68253 5.89999 2.8 6.01746 2.8 6.16249V7.03749ZM5.6 11.2375C5.6 11.3825 5.48253 11.5 5.3375 11.5H4.4625C4.31747 11.5 4.2 11.3825 4.2 11.2375V10.3625C4.2 10.2175 4.31747 10.1 4.4625 10.1H5.3375C5.48253 10.1 5.6 10.2175 5.6 10.3625V11.2375ZM5.6 9.13749C5.6 9.28253 5.48253 9.39999 5.3375 9.39999H4.4625C4.31747 9.39999 4.2 9.28253 4.2 9.13749V8.26249C4.2 8.11746 4.31747 7.99999 4.4625 7.99999H5.3375C5.48253 7.99999 5.6 8.11746 5.6 8.26249V9.13749ZM5.6 7.03749C5.6 7.18253 5.48253 7.29999 5.3375 7.29999H4.4625C4.31747 7.29999 4.2 7.18253 4.2 7.03749V6.16249C4.2 6.01746 4.31747 5.89999 4.4625 5.89999H5.3375C5.48253 5.89999 5.6 6.01746 5.6 6.16249V7.03749ZM9.1 9.13749C9.1 9.28253 8.98253 9.39999 8.8375 9.39999H7.9625C7.81747 9.39999 7.7 9.28253 7.7 9.13749V8.26249C7.7 8.11746 7.81747 7.99999 7.9625 7.99999H8.8375C8.98253 7.99999 9.1 8.11746 9.1 8.26249V9.13749ZM9.1 7.03749C9.1 7.18253 8.98253 7.29999 8.8375 7.29999H7.9625C7.81747 7.29999 7.7 7.18253 7.7 7.03749V6.16249C7.7 6.01746 7.81747 5.89999 7.9625 5.89999H8.8375C8.98253 5.89999 9.1 6.01746 9.1 6.16249V7.03749ZM9.1 4.93749C9.1 5.08253 8.98253 5.19999 8.8375 5.19999H7.9625C7.81747 5.19999 7.7 5.08253 7.7 4.93749V4.06249C7.7 3.91746 7.81747 3.79999 7.9625 3.79999H8.8375C8.98253 3.79999 9.1 3.91746 9.1 4.06249V4.93749ZM12.6 11.2375C12.6 11.3825 12.4825 11.5 12.3375 11.5H11.4625C11.3175 11.5 11.2 11.3825 11.2 11.2375V10.3625C11.2 10.2175 11.3175 10.1 11.4625 10.1H12.3375C12.4825 10.1 12.6 10.2175 12.6 10.3625V11.2375ZM12.6 9.13749C12.6 9.28253 12.4825 9.39999 12.3375 9.39999H11.4625C11.3175 9.39999 11.2 9.28253 11.2 9.13749V8.26249C11.2 8.11746 11.3175 7.99999 11.4625 7.99999H12.3375C12.4825 7.99999 12.6 8.11746 12.6 8.26249V9.13749Z" fill="white"/>
</g>
<defs>
<clipPath id="clip0_85_2272">
<rect width="14" height="16" fill="white"/>
</clipPath>
</defs>
</svg>
