<svg width="14" height="16" viewBox="0 0 14 16" fill="none" xmlns="http://www.w3.org/2000/svg">
<path d="M2.1 7.30001C2.87219 7.30001 3.5 6.67219 3.5 5.90001C3.5 5.12782 2.87219 4.50001 2.1 4.50001C1.32781 4.50001 0.7 5.12782 0.7 5.90001C0.7 6.67219 1.32781 7.30001 2.1 7.30001ZM11.9 7.30001C12.6722 7.30001 13.3 6.67219 13.3 5.90001C13.3 5.12782 12.6722 4.50001 11.9 4.50001C11.1278 4.50001 10.5 5.12782 10.5 5.90001C10.5 6.67219 11.1278 7.30001 11.9 7.30001ZM12.6 8.00001H11.2C10.815 8.00001 10.4672 8.15532 10.2134 8.40688C11.095 8.89032 11.7206 9.76313 11.8562 10.8H13.3C13.6872 10.8 14 10.4872 14 10.1V9.40001C14 8.62782 13.3722 8.00001 12.6 8.00001ZM7 8.00001C8.35406 8.00001 9.45 6.90407 9.45 5.55001C9.45 4.19594 8.35406 3.10001 7 3.10001C5.64594 3.10001 4.55 4.19594 4.55 5.55001C4.55 6.90407 5.64594 8.00001 7 8.00001ZM8.68 8.70001H8.49844C8.04344 8.91876 7.53813 9.05001 7 9.05001C6.46187 9.05001 5.95875 8.91876 5.50156 8.70001H5.32C3.92875 8.70001 2.8 9.82876 2.8 11.22V11.85C2.8 12.4297 3.27031 12.9 3.85 12.9H10.15C10.7297 12.9 11.2 12.4297 11.2 11.85V11.22C11.2 9.82876 10.0712 8.70001 8.68 8.70001ZM3.78656 8.40688C3.53281 8.15532 3.185 8.00001 2.8 8.00001H1.4C0.627813 8.00001 0 8.62782 0 9.40001V10.1C0 10.4872 0.312812 10.8 0.7 10.8H2.14156C2.27938 9.76313 2.905 8.89032 3.78656 8.40688Z" fill="white"/>
</svg>
