<svg width="17" height="16" viewBox="0 0 17 16" fill="none" xmlns="http://www.w3.org/2000/svg">
<path fill-rule="evenodd" clip-rule="evenodd" d="M4.17109 1.60001C4.38327 1.60001 4.58675 1.68429 4.73678 1.83432C4.88681 1.98435 4.97109 2.18783 4.97109 2.40001V4.08081C5.63673 3.40182 6.46424 2.90345 7.37569 2.63263C8.28714 2.36181 9.25252 2.32746 10.1809 2.53281C11.1093 2.73816 11.9702 3.17645 12.6824 3.80641C13.3946 4.43636 13.9347 5.23724 14.2519 6.13361C14.2904 6.23341 14.3084 6.33992 14.305 6.44684C14.3016 6.55375 14.2768 6.6589 14.2321 6.75605C14.1874 6.85321 14.1236 6.94041 14.0445 7.01249C13.9655 7.08457 13.8728 7.14007 13.772 7.17571C13.6711 7.21134 13.5641 7.22639 13.4574 7.21996C13.3506 7.21353 13.2462 7.18574 13.1503 7.13826C13.0545 7.09078 12.9691 7.02455 12.8993 6.94351C12.8295 6.86246 12.7767 6.76823 12.7439 6.66641C12.5024 5.98386 12.0803 5.37962 11.5224 4.91807C10.9646 4.45652 10.292 4.15495 9.57634 4.04551C8.86065 3.93607 8.12868 4.02285 7.45842 4.2966C6.78816 4.57035 6.20473 5.02082 5.77029 5.60001H8.17109C8.38327 5.60001 8.58675 5.68429 8.73678 5.83432C8.88681 5.98435 8.97109 6.18783 8.97109 6.40001C8.97109 6.61218 8.88681 6.81566 8.73678 6.96569C8.58675 7.11572 8.38327 7.20001 8.17109 7.20001H4.17109C3.95892 7.20001 3.75544 7.11572 3.60541 6.96569C3.45538 6.81566 3.37109 6.61218 3.37109 6.40001V2.40001C3.37109 2.18783 3.45538 1.98435 3.60541 1.83432C3.75544 1.68429 3.95892 1.60001 4.17109 1.60001ZM4.17749 8.84561C4.27656 8.81061 4.38155 8.79548 4.48647 8.80107C4.59139 8.80666 4.69418 8.83286 4.78897 8.87817C4.88376 8.92349 4.9687 8.98703 5.03893 9.06518C5.10916 9.14332 5.16332 9.23453 5.19829 9.33361C5.43978 10.0162 5.86193 10.6204 6.41975 11.0819C6.97757 11.5435 7.65015 11.8451 8.36584 11.9545C9.08153 12.0639 9.81351 11.9772 10.4838 11.7034C11.154 11.4297 11.7375 10.9792 12.1719 10.4H9.77109C9.55892 10.4 9.35544 10.3157 9.20541 10.1657C9.05538 10.0157 8.97109 9.81218 8.97109 9.60001C8.97109 9.38783 9.05538 9.18435 9.20541 9.03432C9.35544 8.88429 9.55892 8.80001 9.77109 8.80001H13.7711C13.9833 8.80001 14.1868 8.88429 14.3368 9.03432C14.4868 9.18435 14.5711 9.38783 14.5711 9.60001V13.6C14.5711 13.8122 14.4868 14.0157 14.3368 14.1657C14.1868 14.3157 13.9833 14.4 13.7711 14.4C13.5589 14.4 13.3554 14.3157 13.2054 14.1657C13.0554 14.0157 12.9711 13.8122 12.9711 13.6V11.9192C12.3055 12.5982 11.4779 13.0966 10.5665 13.3674C9.65505 13.6382 8.68966 13.6726 7.76127 13.4672C6.83287 13.2619 5.97203 12.8236 5.25982 12.1936C4.54761 11.5637 4.00748 10.7628 3.69029 9.86641C3.6553 9.76734 3.64017 9.66235 3.64576 9.55743C3.65134 9.45251 3.67754 9.34972 3.72286 9.25493C3.76817 9.16014 3.83172 9.0752 3.90986 9.00497C3.98801 8.93474 4.07842 8.88058 4.17749 8.84561Z" fill="#020015"/>
</svg>
