<svg width="15" height="21" viewBox="0 0 15 21" fill="none" xmlns="http://www.w3.org/2000/svg">
<path d="M3.57861 0.662109H11.5786C12.3743 0.662109 13.1373 0.97818 13.6999 1.54079C14.2625 2.1034 14.5786 2.86646 14.5786 3.66211V18.6621C14.5785 19.0498 14.4657 19.4292 14.254 19.754C14.0422 20.0788 13.7406 20.335 13.3859 20.4915C13.0311 20.648 12.6385 20.698 12.2559 20.6354C11.8733 20.5729 11.517 20.4004 11.2306 20.1391L8.25261 17.4221C8.06838 17.254 7.828 17.1608 7.57861 17.1608C7.32923 17.1608 7.08884 17.254 6.90461 17.4221L3.92661 20.1391C3.64019 20.4004 3.28398 20.5729 2.90133 20.6354C2.51868 20.698 2.1261 20.648 1.77136 20.4915C1.41662 20.335 1.11502 20.0788 0.903253 19.754C0.691492 19.4292 0.578703 19.0498 0.578613 18.6621V3.66211C0.578613 2.86646 0.894684 2.1034 1.45729 1.54079C2.0199 0.97818 2.78296 0.662109 3.57861 0.662109Z" fill="#00C2D2"/>
</svg>
