<svg width="13" height="13" viewBox="0 0 13 13" fill="none" xmlns="http://www.w3.org/2000/svg">
<g clip-path="url(#clip0_141_357)">
<path d="M9.20111 3.26852C9.14935 3.22754 9.08999 3.19722 9.02645 3.1793C8.96291 3.16138 8.89645 3.15623 8.8309 3.16413C8.76536 3.17203 8.70203 3.19284 8.64457 3.22534C8.5871 3.25785 8.53665 3.30141 8.49611 3.35352L4.99611 7.85352L3.28111 5.76352C3.24088 5.70997 3.19031 5.66505 3.13239 5.63142C3.07446 5.5978 3.01038 5.57615 2.94393 5.56777C2.87748 5.55939 2.81002 5.56444 2.74557 5.58263C2.68111 5.60081 2.62096 5.63177 2.5687 5.67365C2.51643 5.71553 2.47311 5.76748 2.44131 5.82642C2.40951 5.88537 2.38987 5.9501 2.38357 6.01678C2.37726 6.08345 2.38442 6.15072 2.40461 6.21458C2.4248 6.27844 2.45762 6.33759 2.50111 6.38852L4.58611 8.97852C4.63317 9.03653 4.69263 9.08326 4.76012 9.11527C4.82761 9.14729 4.90141 9.16377 4.97611 9.16352C5.0554 9.16706 5.13439 9.15168 5.20656 9.11864C5.27872 9.0856 5.34198 9.03585 5.39111 8.97352L9.30611 3.97352C9.34603 3.92053 9.375 3.86013 9.39134 3.79584C9.40768 3.73154 9.41106 3.66464 9.40129 3.59903C9.39151 3.53341 9.36878 3.4704 9.33442 3.41365C9.30005 3.35691 9.25473 3.30758 9.20111 3.26852Z" fill="#00CDDF"/>
<path d="M11.701 3.26852C11.6493 3.22754 11.5899 3.19722 11.5264 3.1793C11.4628 3.16138 11.3964 3.15623 11.3308 3.16413C11.2653 3.17203 11.202 3.19284 11.1445 3.22534C11.087 3.25785 11.0366 3.30141 10.996 3.35352L7.49604 7.85352L7.19104 7.47852L6.56104 8.28852L7.11103 8.97352C7.15809 9.03153 7.21755 9.07826 7.28504 9.11027C7.35253 9.14229 7.42634 9.15877 7.50104 9.15852C7.57614 9.15817 7.6502 9.14091 7.71771 9.10802C7.78523 9.07513 7.84447 9.02745 7.89104 8.96852L11.806 3.96852C11.8452 3.91569 11.8735 3.85566 11.8894 3.79186C11.9053 3.72807 11.9085 3.66176 11.8987 3.59674C11.889 3.53172 11.8665 3.46926 11.8326 3.41294C11.7986 3.35662 11.7539 3.30755 11.701 3.26852Z" fill="#00CDDF"/>
</g>
<defs>
<clipPath id="clip0_141_357">
<rect width="12" height="12" fill="white" transform="translate(0.891113 0.163574)"/>
</clipPath>
</defs>
</svg>
