<svg width="18" height="16" viewBox="0 0 24 25" fill="none" xmlns="http://www.w3.org/2000/svg">
<path d="M8 4.13184C7.73478 4.13184 7.48043 4.23719 7.29289 4.42473C7.10536 4.61227 7 4.86662 7 5.13184V20.1318L9.978 17.4148C10.5307 16.9106 11.2518 16.631 12 16.631C12.7482 16.631 13.4693 16.9106 14.022 17.4148L17 20.1318V5.13184C17 4.86662 16.8946 4.61227 16.7071 4.42473C16.5196 4.23719 16.2652 4.13184 16 4.13184H8ZM8 2.13184H16C16.7956 2.13184 17.5587 2.44791 18.1213 3.01052C18.6839 3.57312 19 4.33619 19 5.13184V20.1318C18.9999 20.5196 18.8871 20.8989 18.6754 21.2237C18.4636 21.5485 18.162 21.8047 17.8073 21.9612C17.4525 22.1177 17.0599 22.1677 16.6773 22.1052C16.2946 22.0426 15.9384 21.8702 15.652 21.6088L12.674 18.8918C12.4898 18.7238 12.2494 18.6306 12 18.6306C11.7506 18.6306 11.5102 18.7238 11.326 18.8918L8.348 21.6088C8.06157 21.8702 7.70536 22.0426 7.32272 22.1052C6.94007 22.1677 6.54749 22.1177 6.19275 21.9612C5.83801 21.8047 5.5364 21.5485 5.32464 21.2237C5.11288 20.8989 5.00009 20.5196 5 20.1318V5.13184C5 4.33619 5.31607 3.57312 5.87868 3.01052C6.44129 2.44791 7.20435 2.13184 8 2.13184Z" fill="white"/>
</svg>
