<svg width="26" height="27" viewBox="0 0 26 27" fill="none" xmlns="http://www.w3.org/2000/svg">
<path d="M9.08768 16.9435L15.8141 9.57834L13.0969 9.70203C12.8959 9.71106 12.6996 9.6399 12.5511 9.5042C12.4776 9.43701 12.4181 9.35599 12.3758 9.26578C12.3336 9.17557 12.3096 9.07792 12.3051 8.97843C12.3007 8.87893 12.3158 8.77952 12.3498 8.68588C12.3837 8.59225 12.4358 8.50621 12.503 8.43269C12.6387 8.28421 12.8278 8.19572 13.0287 8.18668L17.5737 7.98123C17.7745 7.97216 17.9708 8.04324 18.1192 8.17883C18.2677 8.31443 18.3562 8.50344 18.3654 8.7043L18.5713 13.2487C18.5759 13.3482 18.5608 13.4476 18.5269 13.5412C18.493 13.6349 18.441 13.721 18.3739 13.7945C18.3068 13.8681 18.2258 13.9277 18.1356 13.97C18.0454 14.0123 17.9478 14.0364 17.8483 14.0409C17.7488 14.0455 17.6494 14.0304 17.5557 13.9965C17.4621 13.9626 17.376 13.9106 17.3024 13.8435C17.1538 13.7079 17.0652 13.5188 17.056 13.3179L16.9335 10.6016L10.2075 17.9662L12.9237 17.8415C13.0232 17.837 13.1226 17.8522 13.2162 17.8861C13.3098 17.9201 13.3959 17.9721 13.4694 18.0393C13.5429 18.1065 13.6025 18.1875 13.6447 18.2777C13.6869 18.3679 13.7109 18.4656 13.7154 18.5651C13.7199 18.6646 13.7047 18.764 13.6708 18.8576C13.6368 18.9513 13.5848 19.0373 13.5176 19.1108C13.4504 19.1843 13.3694 19.2439 13.2792 19.2861C13.1889 19.3283 13.0913 19.3523 12.9918 19.3568L8.4475 19.5639C8.34797 19.5686 8.24847 19.5537 8.15473 19.5199C8.06099 19.4861 7.97485 19.4341 7.90128 19.367C7.8277 19.2998 7.76813 19.2187 7.726 19.1284C7.68387 19.0381 7.66 18.9403 7.65578 18.8408L7.44926 14.2959C7.44 14.0949 7.51098 13.8985 7.64657 13.7498C7.78217 13.6011 7.97127 13.5124 8.17228 13.5031C8.37328 13.4939 8.56974 13.5648 8.71841 13.7004C8.86709 13.836 8.95581 14.0251 8.96507 14.2261L9.08768 16.9435Z" fill="black"/>
</svg>
