<svg width="25" height="25" viewBox="0 0 25 25" fill="none" xmlns="http://www.w3.org/2000/svg">
<path d="M12.5195 23.7695C18.7327 23.7695 23.7695 18.7327 23.7695 12.5195C23.7695 6.30633 18.7327 1.26953 12.5195 1.26953C6.30633 1.26953 1.26953 6.30633 1.26953 12.5195C1.26953 18.7327 6.30633 23.7695 12.5195 23.7695Z" fill="#141820"/>
<path d="M9.58594 9.66855C9.58594 6.66855 15.5859 5.91855 15.3359 9.16855C15.3359 11.4186 11.3359 12.4186 11.3359 14.9186V16.6686H13.8359V15.6686C13.8359 13.4186 18.0859 12.6686 18.0859 8.91855C17.5859 3.41855 6.83594 3.41855 6.83594 9.66855H9.58594ZM11.3359 17.6686H13.8359V20.1686H11.3359V17.6686Z" fill="white"/>
<path d="M12.5 25C19.4035 25 25 19.4035 25 12.5C25 5.59648 19.4035 0 12.5 0C5.59648 0 0 5.59648 0 12.5C0 19.4035 5.59648 25 12.5 25ZM12.5 22.5C6.97715 22.5 2.5 18.0229 2.5 12.5C2.5 6.97715 6.97715 2.5 12.5 2.5C18.0229 2.5 22.5 6.97715 22.5 12.5C22.5 18.0229 18.0229 22.5 12.5 22.5Z" fill="#141820"/>
</svg>
