<svg width="19" height="15" viewBox="0 0 19 15" fill="none" xmlns="http://www.w3.org/2000/svg">
<path d="M9.30078 4.15625C9.36328 4.09375 9.45703 4.0625 9.55078 4.0625C9.61328 4.0625 9.70703 4.09375 9.76953 4.15625L15.5508 8.875V14C15.5508 14.2812 15.3008 14.5 15.0508 14.5H11.5195C11.2695 14.5 11.0195 14.2812 11.0195 14V11C11.0195 10.75 10.8008 10.5 10.5195 10.5H8.51953C8.26953 10.5 8.01953 10.75 8.01953 11V14C8.01953 14.2812 7.80078 14.5 7.55078 14.5H4.05078C3.76953 14.5 3.55078 14.2812 3.55078 14V8.90625L9.30078 4.15625ZM18.3945 7.375C18.4883 7.4375 18.5508 7.5625 18.5508 7.65625C18.5508 7.75 18.5195 7.84375 18.457 7.90625L17.6445 8.875C17.582 8.96875 17.4883 9 17.3633 9C17.2695 9 17.1758 8.96875 17.1133 8.90625L9.76953 2.875C9.70703 2.8125 9.61328 2.78125 9.55078 2.78125C9.45703 2.78125 9.36328 2.8125 9.30078 2.875L1.95703 8.90625C1.89453 8.96875 1.80078 9 1.70703 9C1.58203 9 1.48828 8.96875 1.42578 8.875L0.613281 7.90625C0.582031 7.84375 0.519531 7.75 0.519531 7.65625C0.519531 7.5625 0.582031 7.4375 0.675781 7.375L8.58203 0.84375C8.83203 0.65625 9.17578 0.53125 9.55078 0.53125C9.89453 0.53125 10.2383 0.65625 10.4883 0.84375L13.3008 3.15625V0.90625C13.3008 0.6875 13.457 0.53125 13.6758 0.53125H15.4258C15.6133 0.53125 15.8008 0.6875 15.8008 0.90625V5.21875L18.3945 7.375Z" fill="#69727D"/>
</svg>
