<svg width="27" height="24" viewBox="0 0 27 24" fill="none" xmlns="http://www.w3.org/2000/svg">
<path d="M7.68281 6.11016C6.30469 4.71328 6.30469 2.44453 7.68281 1.04766C9.06094 -0.349219 11.2922 -0.349219 12.6703 1.04766L13.5 1.89141L14.3297 1.04766C15.7078 -0.349219 17.9391 -0.349219 19.3172 1.04766C20.6953 2.44453 20.6953 4.71328 19.3172 6.11016L14.5547 10.9477C14.2641 11.243 13.8844 11.3883 13.5 11.3883C13.1156 11.3883 12.7359 11.243 12.4453 10.9477L7.68281 6.11016ZM26.6344 15.457C27.2484 16.2914 27.0703 17.4633 26.2359 18.0773L20.3016 22.4508C19.2047 23.257 17.8828 23.693 16.5187 23.693H1.5C0.670312 23.693 0 23.0227 0 22.193V19.193C0 18.3633 0.670312 17.693 1.5 17.693H3.225L5.32969 16.0055C6.39375 15.1523 7.71562 14.693 9.07969 14.693H16.5C17.3297 14.693 18 15.3633 18 16.193C18 17.0227 17.3297 17.693 16.5 17.693H12.75C12.3375 17.693 12 18.0305 12 18.443C12 18.8555 12.3375 19.193 12.75 19.193H18.4031L24.0141 15.0586C24.8484 14.4445 26.0203 14.6227 26.6344 15.457Z" fill="#68B8FE"/>
</svg>
