<svg width="13" height="16" viewBox="0 0 5 6" fill="none" xmlns="http://www.w3.org/2000/svg">
<path d="M1.45813e-06 5.36785V0.250853C-0.000149996 0.206503 0.0114996 0.162911 0.0337549 0.124549C0.0560101 0.0861865 0.0880699 0.054435 0.126646 0.0325517C0.165221 0.0106684 0.208924 -0.000558831 0.253271 2.14022e-05C0.297617 0.000601636 0.341012 0.0129687 0.379002 0.0358538L4.643 2.59485C4.67985 2.61711 4.71033 2.6485 4.73149 2.68599C4.75264 2.72349 4.76376 2.7658 4.76376 2.80885C4.76376 2.8519 4.75264 2.89422 4.73149 2.93171C4.71033 2.96921 4.67985 3.0006 4.643 3.02285L0.379002 5.58185C0.341084 5.60469 0.297782 5.61706 0.253521 5.61768C0.20926 5.61831 0.165627 5.60717 0.127082 5.5854C0.0885366 5.56364 0.0564609 5.53203 0.0341335 5.49381C0.0118061 5.45558 2.75074e-05 5.41212 1.45813e-06 5.36785Z" fill="#fff"/>
</svg>
