<svg width="14" height="15" viewBox="0 0 14 15" fill="none" xmlns="http://www.w3.org/2000/svg">
<path d="M13.8613 7.75C13.8613 11.4961 10.7988 14.5312 7.08008 14.5312C3.33398 14.5312 0.298828 11.4961 0.298828 7.75C0.298828 4.03125 3.33398 0.96875 7.08008 0.96875C10.7988 0.96875 13.8613 4.03125 13.8613 7.75ZM7.24414 3.21094C5.76758 3.21094 4.81055 3.83984 4.07227 4.96094C3.96289 5.125 3.99023 5.31641 4.12695 5.42578L5.08398 6.13672C5.2207 6.24609 5.43945 6.21875 5.54883 6.08203C6.04102 5.45312 6.36914 5.09766 7.10742 5.09766C7.6543 5.09766 8.36523 5.45312 8.36523 6C8.36523 6.41016 8.00977 6.62891 7.46289 6.92969C6.83398 7.28516 5.98633 7.72266 5.98633 8.84375V8.95312C5.98633 9.14453 6.12305 9.28125 6.31445 9.28125H7.8457C8.00977 9.28125 8.17383 9.14453 8.17383 8.95312V8.92578C8.17383 8.16016 10.4434 8.13281 10.4434 6C10.4434 4.41406 8.80273 3.21094 7.24414 3.21094ZM7.08008 9.99219C6.36914 9.99219 5.82227 10.5664 5.82227 11.25C5.82227 11.9609 6.36914 12.5078 7.08008 12.5078C7.76367 12.5078 8.33789 11.9609 8.33789 11.25C8.33789 10.5664 7.76367 9.99219 7.08008 9.99219Z" fill="#00C2D2"/>
</svg>
