<svg width="19" height="19" viewBox="0 0 19 19" fill="none" xmlns="http://www.w3.org/2000/svg">
<path d="M1.95402 5.19426C1.82723 4.92869 1.78587 4.63034 1.83566 4.34029C1.88544 4.05024 2.02391 3.78275 2.232 3.57466L3.57448 2.23117C3.78256 2.02306 4.05003 1.88459 4.34007 1.8348C4.6301 1.78501 4.92844 1.82637 5.194 1.95317L6.59341 0.55559C6.94924 0.199846 7.43179 0 7.93494 0C8.43809 0 8.92064 0.199846 9.27647 0.55559L11.9605 3.23879C12.1368 3.41501 12.2766 3.62423 12.372 3.85451C12.4674 4.08478 12.5165 4.3316 12.5165 4.58086C12.5165 4.83012 12.4674 5.07694 12.372 5.30722C12.2766 5.5375 12.1368 5.74672 11.9605 5.92294L5.92169 11.9611C5.74548 12.1374 5.53627 12.2772 5.306 12.3726C5.07574 12.468 4.82893 12.5171 4.57969 12.5171C4.33044 12.5171 4.08363 12.468 3.85337 12.3726C3.6231 12.2772 3.41389 12.1374 3.23768 11.9611L0.555562 9.27693C0.199836 8.92108 0 8.43851 0 7.93534C0 7.43216 0.199836 6.94959 0.555562 6.59374L1.95402 5.19426ZM8.60666 11.9611L11.9614 8.60614L15.3153 11.9611L11.9614 15.3151L8.60666 11.9611ZM13.303 16.6576L16.6568 13.3027L18.3342 14.9802C18.7662 15.4275 19.0053 16.0267 18.9999 16.6486C18.9945 17.2705 18.7451 17.8655 18.3053 18.3053C17.8655 18.745 17.2706 18.9945 16.6487 18.9999C16.0268 19.0053 15.4277 18.7662 14.9804 18.3342L13.303 16.6576Z" fill="white"/>
</svg>
