<svg width="24" height="24" viewBox="0 0 24 24" fill="none" xmlns="http://www.w3.org/2000/svg">
<path d="M11.8857 20.7632C14.2799 20.7632 16.576 19.8126 18.269 18.1205C19.9619 16.4284 20.913 14.1334 20.913 11.7404C20.913 9.3474 19.9619 7.05242 18.269 5.36032C16.576 3.66822 14.2799 2.71761 11.8857 2.71761C9.49151 2.71761 7.19538 3.66822 5.50243 5.36032C3.80948 7.05242 2.85839 9.3474 2.85839 11.7404C2.85839 14.1334 3.80948 16.4284 5.50243 18.1205C7.19538 19.8126 9.49151 20.7632 11.8857 20.7632ZM11.8857 23.0189C5.65347 23.0189 0.601562 17.9695 0.601562 11.7404C0.601562 5.51129 5.65347 0.461914 11.8857 0.461914C18.1179 0.461914 23.1698 5.51129 23.1698 11.7404C23.1698 17.9695 18.1179 23.0189 11.8857 23.0189ZM6.24363 10.6125H17.5278C17.827 10.6125 18.1141 10.7314 18.3257 10.9429C18.5373 11.1544 18.6562 11.4413 18.6562 11.7404C18.6562 12.0395 18.5373 12.3264 18.3257 12.5379C18.1141 12.7494 17.827 12.8682 17.5278 12.8682H6.24363C5.94436 12.8682 5.65734 12.7494 5.44572 12.5379C5.2341 12.3264 5.11522 12.0395 5.11522 11.7404C5.11522 11.4413 5.2341 11.1544 5.44572 10.9429C5.65734 10.7314 5.94436 10.6125 6.24363 10.6125Z" fill="#00172C"/>
</svg>
