<svg width="23" height="23" viewBox="0 0 23 23" fill="none" xmlns="http://www.w3.org/2000/svg">
<path d="M11.2841 22.557C5.05191 22.557 0 17.5076 0 11.2785C0 5.04938 5.05191 0 11.2841 0C17.5164 0 22.5683 5.04938 22.5683 11.2785C22.5683 17.5076 17.5164 22.557 11.2841 22.557ZM11.2841 20.3013C13.6783 20.3013 15.9745 19.3507 17.6674 17.6586C19.3604 15.9665 20.3114 13.6715 20.3114 11.2785C20.3114 8.88549 19.3604 6.59051 17.6674 4.89841C15.9745 3.20631 13.6783 2.2557 11.2841 2.2557C8.88995 2.2557 6.59381 3.20631 4.90087 4.89841C3.20792 6.59051 2.25683 8.88549 2.25683 11.2785C2.25683 13.6715 3.20792 15.9665 4.90087 17.6586C6.59381 19.3507 8.88995 20.3013 11.2841 20.3013ZM12.4126 12.4063V16.9177C12.4126 17.2168 12.2937 17.5037 12.082 17.7152C11.8704 17.9267 11.5834 18.0456 11.2841 18.0456C10.9849 18.0456 10.6978 17.9267 10.4862 17.7152C10.2746 17.5037 10.1557 17.2168 10.1557 16.9177V12.4063H5.64207C5.34279 12.4063 5.05578 12.2875 4.84416 12.076C4.63254 11.8645 4.51366 11.5776 4.51366 11.2785C4.51366 10.9794 4.63254 10.6925 4.84416 10.481C5.05578 10.2695 5.34279 10.1506 5.64207 10.1506H10.1557V5.63924C10.1557 5.34012 10.2746 5.05324 10.4862 4.84173C10.6978 4.63022 10.9849 4.51139 11.2841 4.51139C11.5834 4.51139 11.8704 4.63022 12.082 4.84173C12.2937 5.05324 12.4126 5.34012 12.4126 5.63924V10.1506H16.9262C17.2255 10.1506 17.5125 10.2695 17.7241 10.481C17.9357 10.6925 18.0546 10.9794 18.0546 11.2785C18.0546 11.5776 17.9357 11.8645 17.7241 12.076C17.5125 12.2875 17.2255 12.4063 16.9262 12.4063H12.4126Z" fill="#00172C"/>
</svg>
