<svg width="10" height="11" viewBox="0 0 10 11" fill="none" xmlns="http://www.w3.org/2000/svg">
<path fill-rule="evenodd" clip-rule="evenodd" d="M5 0.455688C5.26522 0.455688 5.51957 0.561046 5.70711 0.748582C5.89464 0.936118 6 1.19047 6 1.45569V4.45569H9C9.26522 4.45569 9.51957 4.56105 9.70711 4.74858C9.89464 4.93612 10 5.19047 10 5.45569C10 5.7209 9.89464 5.97526 9.70711 6.1628C9.51957 6.35033 9.26522 6.45569 9 6.45569H6V9.45569C6 9.72091 5.89464 9.97526 5.70711 10.1628C5.51957 10.3503 5.26522 10.4557 5 10.4557C4.73478 10.4557 4.48043 10.3503 4.29289 10.1628C4.10536 9.97526 4 9.72091 4 9.45569V6.45569H1C0.734784 6.45569 0.48043 6.35033 0.292893 6.1628C0.105357 5.97526 0 5.7209 0 5.45569C0 5.19047 0.105357 4.93612 0.292893 4.74858C0.48043 4.56105 0.734784 4.45569 1 4.45569H4V1.45569C4 1.19047 4.10536 0.936118 4.29289 0.748582C4.48043 0.561046 4.73478 0.455688 5 0.455688Z" fill="#00172C"/>
</svg>
