<svg width="23" height="23" viewBox="0 0 23 23" fill="none" xmlns="http://www.w3.org/2000/svg">
<g clip-path="url(#clip0_1567_418)">
<path d="M19.4677 3.89261C19.4581 3.8084 19.4397 3.72544 19.4127 3.64511V3.56261C19.3687 3.4606 19.3066 3.36742 19.2293 3.28761C19.1515 3.21452 19.0616 3.15558 18.9635 3.11345H18.881C18.7965 3.04892 18.6999 3.00215 18.5968 2.97595H18.551C18.4599 2.96212 18.3672 2.96212 18.276 2.97595L1.77601 8.47595C1.59261 8.53623 1.43293 8.65287 1.31972 8.80924C1.20652 8.96561 1.14557 9.15373 1.14557 9.34678C1.14557 9.53983 1.20652 9.72795 1.31972 9.88432C1.43293 10.0407 1.59261 10.1573 1.77601 10.2176L9.59517 12.8209L12.1985 20.6401C12.2588 20.8235 12.3754 20.9832 12.5318 21.0964C12.6882 21.2096 12.8763 21.2705 13.0693 21.2705C13.2624 21.2705 13.4505 21.2096 13.6069 21.0964C13.7633 20.9832 13.8799 20.8235 13.9402 20.6401L19.4402 4.14011C19.4606 4.05925 19.4698 3.97598 19.4677 3.89261ZM15.1593 5.99178L10.0535 11.0976L4.94767 9.39261L15.1593 5.99178ZM13.051 17.4959L11.346 12.3901L16.4518 7.28428L13.051 17.4959Z" fill="white"/>
</g>
<defs>
<clipPath id="clip0_1567_418">
<rect width="22" height="22" fill="white" transform="translate(0.217651 0.226074)"/>
</clipPath>
</defs>
</svg>
