<svg width="26" height="26" viewBox="0 0 26 26" fill="none" xmlns="http://www.w3.org/2000/svg">
<path d="M15.2966 13.3395H10.4722V17.6728H15.2966C15.5527 17.6663 15.805 17.6093 16.0391 17.5052C16.2732 17.4011 16.4845 17.2519 16.6609 17.0661C16.8373 16.8803 16.9753 16.6616 17.0671 16.4224C17.159 16.1833 17.2028 15.9284 17.1961 15.6723V15.3256C17.2039 14.8114 17.009 14.3148 16.6535 13.9431C16.2981 13.5714 15.8107 13.3546 15.2966 13.3395Z" fill="black"/>
<path d="M16.6111 9.93054C16.612 9.71809 16.5711 9.50753 16.4907 9.31089C16.4103 9.11425 16.2919 8.93538 16.1423 8.78448C15.9928 8.63358 15.815 8.51362 15.6191 8.43145C15.4231 8.34927 15.213 8.30649 15.0005 8.30554H10.4722V11.5555H15.0222C15.2333 11.5537 15.4421 11.5101 15.6363 11.4273C15.8306 11.3445 16.0066 11.2242 16.1543 11.0732C16.3019 10.9222 16.4183 10.7435 16.4966 10.5474C16.575 10.3513 16.6139 10.1417 16.6111 9.93054Z" fill="black"/>
<path d="M12.9999 1.44446C10.7144 1.44446 8.48028 2.12218 6.57997 3.39192C4.67967 4.66166 3.19857 6.46639 2.32396 8.57789C1.44934 10.6894 1.2205 13.0128 1.66638 15.2544C2.11225 17.4959 3.21281 19.555 4.82889 21.171C6.44496 22.7871 8.50396 23.8877 10.7455 24.3335C12.9871 24.7794 15.3105 24.5506 17.422 23.676C19.5335 22.8013 21.3382 21.3202 22.608 19.4199C23.8777 17.5196 24.5555 15.2855 24.5555 13C24.5555 9.93529 23.338 6.99609 21.1709 4.829C19.0038 2.66192 16.0646 1.44446 12.9999 1.44446ZM19.0016 15.6939C19.0112 16.6888 18.6272 17.6473 17.9332 18.3602C17.2391 19.0732 16.2914 19.4829 15.2966 19.5H15.1666V20.8722C15.1666 21.0638 15.0905 21.2475 14.955 21.3829C14.8196 21.5184 14.6359 21.5945 14.4443 21.5945C14.2528 21.5945 14.0691 21.5184 13.9337 21.3829C13.7982 21.2475 13.7221 21.0638 13.7221 20.8722V19.5H12.2777V20.8722C12.2777 21.0638 12.2016 21.2475 12.0661 21.3829C11.9307 21.5184 11.747 21.5945 11.5555 21.5945C11.3639 21.5945 11.1802 21.5184 11.0448 21.3829C10.9093 21.2475 10.8332 21.0638 10.8332 20.8722V19.5H9.56934C9.32991 19.5 9.10028 19.4049 8.93098 19.2356C8.76168 19.0663 8.66656 18.8367 8.66656 18.5972V7.38835C8.67035 7.15143 8.76714 6.9255 8.93603 6.7593C9.10493 6.59311 9.33239 6.49998 9.56934 6.50001H10.8332V5.10612C10.8332 4.91458 10.9093 4.73088 11.0448 4.59544C11.1802 4.45999 11.3639 4.3839 11.5555 4.3839C11.747 4.3839 11.9307 4.45999 12.0661 4.59544C12.2016 4.73088 12.2777 4.91458 12.2777 5.10612V6.50001H13.7221V5.10612C13.7221 4.91458 13.7982 4.73088 13.9337 4.59544C14.0691 4.45999 14.2528 4.3839 14.4443 4.3839C14.6359 4.3839 14.8196 4.45999 14.955 4.59544C15.0905 4.73088 15.1666 4.91458 15.1666 5.10612V6.50001C15.8239 6.52655 16.4595 6.74273 16.9967 7.12247C17.5339 7.5022 17.9498 8.02928 18.1941 8.6401C18.4385 9.25092 18.5008 9.91939 18.3737 10.5649C18.2466 11.2103 17.9354 11.8052 17.4777 12.2778C17.9513 12.6355 18.3355 13.0982 18.5999 13.6296C18.8644 14.161 19.0018 14.7465 19.0016 15.34V15.6939Z" fill="black"/>
</svg>
