<svg width="16" height="16" viewBox="0 0 16 16" fill="none" xmlns="http://www.w3.org/2000/svg">
<path fill-rule="evenodd" clip-rule="evenodd" d="M3.11111 0C2.87536 0 2.64927 0.0936505 2.48257 0.260349C2.31587 0.427048 2.22222 0.653141 2.22222 0.888889V1.33333H0V9.77778H9.77778V1.33333H7.55556V0.888889C7.55556 0.653141 7.4619 0.427048 7.29521 0.260349C7.12851 0.0936505 6.90241 0 6.66667 0H3.11111ZM6.66667 5.33333C6.90241 5.33333 7.12851 5.23968 7.29521 5.07298C7.4619 4.90628 7.55556 4.68019 7.55556 4.44444V4H8.88889V8.88889H6.66667V6.22222H3.11111V8.88889H0.888889V4H2.22222V4.44444C2.22222 4.68019 2.31587 4.90628 2.48257 5.07298C2.64927 5.23968 2.87536 5.33333 3.11111 5.33333H6.66667ZM0.888889 2.22222H2.22222V3.11111H0.888889V2.22222ZM8.88889 3.11111H7.55556V2.22222H8.88889V3.11111ZM5.77778 7.11111V8.88889H4V7.11111H5.77778ZM4.44444 0.888889V2.22222H3.11111V3.11111H4.44444V4.44444H5.33333V3.11111H6.66667V2.22222H5.33333V0.888889H4.44444Z" fill="#00CDDF"/>
<path d="M10.6671 9.33332C10.6671 8.86182 10.8544 8.40964 11.1878 8.07624C11.5212 7.74284 11.9734 7.55554 12.4449 7.55554C12.9164 7.55554 13.3685 7.74284 13.7019 8.07624C14.0353 8.40964 14.2226 8.86182 14.2226 9.33332C14.2226 9.80482 14.0353 10.257 13.7019 10.5904C13.3685 10.9238 12.9164 11.1111 12.4449 11.1111C11.9734 11.1111 11.5212 10.9238 11.1878 10.5904C10.8544 10.257 10.6671 9.80482 10.6671 9.33332ZM12.4449 12C11.2582 12 8.88931 12.6498 8.88931 13.9395V15.1111H4.88931C4.56531 15.1111 4.35509 14.9942 4.22131 14.8435C4.08042 14.6849 4.00042 14.4609 4.00042 14.2222V12.6284L5.46398 14.092L6.09242 13.4635L3.55598 10.9271L1.01953 13.4635L1.64798 14.092L3.11153 12.6284V14.2222C3.11153 14.6502 3.25375 15.0929 3.55731 15.4342C3.86798 15.7835 4.32442 16 4.88931 16H16.0004V13.9395C16.0004 12.6498 13.6315 12 12.4449 12Z" fill="#00CDDF"/>
</svg>
