<svg width="19" height="15" viewBox="0 0 19 15" fill="none" xmlns="http://www.w3.org/2000/svg">
<path d="M9.51016 4.07617C9.57266 4.01367 9.66641 3.98242 9.76016 3.98242C9.82266 3.98242 9.91641 4.01367 9.97891 4.07617L15.7602 8.79492V13.9199C15.7602 14.2012 15.5102 14.4199 15.2602 14.4199H11.7289C11.4789 14.4199 11.2289 14.2012 11.2289 13.9199V10.9199C11.2289 10.6699 11.0102 10.4199 10.7289 10.4199H8.72891C8.47891 10.4199 8.22891 10.6699 8.22891 10.9199V13.9199C8.22891 14.2012 8.01016 14.4199 7.76016 14.4199H4.26016C3.97891 14.4199 3.76016 14.2012 3.76016 13.9199V8.82617L9.51016 4.07617ZM18.6039 7.29492C18.6977 7.35742 18.7602 7.48242 18.7602 7.57617C18.7602 7.66992 18.7289 7.76367 18.6664 7.82617L17.8539 8.79492C17.7914 8.88867 17.6977 8.91992 17.5727 8.91992C17.4789 8.91992 17.3852 8.88867 17.3227 8.82617L9.97891 2.79492C9.91641 2.73242 9.82266 2.70117 9.76016 2.70117C9.66641 2.70117 9.57266 2.73242 9.51016 2.79492L2.16641 8.82617C2.10391 8.88867 2.01016 8.91992 1.91641 8.91992C1.79141 8.91992 1.69766 8.88867 1.63516 8.79492L0.822657 7.82617C0.791407 7.76367 0.728907 7.66992 0.728907 7.57617C0.728907 7.48242 0.791407 7.35742 0.885157 7.29492L8.79141 0.763672C9.04141 0.576172 9.38516 0.451172 9.76016 0.451172C10.1039 0.451172 10.4477 0.576172 10.6977 0.763672L13.5102 3.07617V0.826172C13.5102 0.607422 13.6664 0.451172 13.8852 0.451172H15.6352C15.8227 0.451172 16.0102 0.607422 16.0102 0.826172V5.13867L18.6039 7.29492Z" fill="#00CDDF"/>
</svg>
