<svg width="19" height="17" viewBox="0 0 19 17" fill="none" xmlns="http://www.w3.org/2000/svg">
<path d="M9.1 0C11.2563 0 13.0375 1.78125 13.0375 3.9375C13.0375 5.71875 10.4438 8.90625 9.475 10.0938C9.25625 10.3125 8.9125 10.3125 8.69375 10.0938C7.725 8.90625 5.1625 5.71875 5.1625 3.9375C5.1625 1.78125 6.9125 0 9.1 0ZM9.1 5.25C9.81875 5.25 10.4125 4.6875 10.4125 3.9375C10.4125 3.21875 9.81875 2.625 9.1 2.625C8.35 2.625 7.7875 3.21875 7.7875 3.9375C7.7875 4.6875 8.35 5.25 9.1 5.25ZM0.725 6.75L4.4125 5.28125C4.56875 5.75 4.81875 6.21875 5.1 6.71875V14L0.75625 15.9688C0.44375 16.125 0.1 15.875 0.1 15.5V7.6875C0.1 7.28125 0.35 6.90625 0.725 6.75ZM9.1 11.25C9.5375 11.25 9.94375 11.0625 10.225 10.7188C10.85 10 11.5063 9.1875 12.1 8.3125V16L6.1 14V8.3125C6.6625 9.1875 7.31875 10 7.94375 10.7188C8.225 11.0625 8.63125 11.25 9.1 11.25ZM17.4125 5.0625C17.725 4.90625 18.1 5.15625 18.1 5.53125V13.3438C18.1 13.75 17.8188 14.125 17.4438 14.2812L13.1 16V7L17.4125 5.0625Z" fill="#00CDDF"/>
</svg>
