<svg width="18" height="17" viewBox="0 0 18 17" fill="none" xmlns="http://www.w3.org/2000/svg">
<path d="M16.7289 9.06006C17.0414 9.06006 17.2914 9.34131 17.2289 9.62256C17.0102 11.3726 16.1664 12.9038 14.9477 14.0288C14.7602 14.2163 14.4477 14.2163 14.2602 14.0288L9.32266 9.06006H16.7289ZM16.2289 7.06006C16.2602 7.34131 16.0102 7.56006 15.7289 7.56006H8.76016V0.591309C8.76016 0.310059 8.97891 0.0600586 9.26016 0.0913086C13.0102 0.341309 15.9789 3.31006 16.2289 7.06006ZM7.26016 9.06006L12.1039 13.9351C12.3227 14.1538 12.3227 14.5288 12.0727 14.6851C10.8852 15.5601 9.41641 16.0601 7.85391 16.0601C3.82266 16.1226 0.385157 12.8413 0.260157 8.84131C0.103907 4.93506 2.94766 1.68506 6.69766 1.15381C6.97891 1.12256 7.26016 1.37256 7.26016 1.65381V9.06006Z" fill="#00CDDF"/>
</svg>
