<svg width="20" height="20" viewBox="0 0 22 22" fill="none" xmlns="http://www.w3.org/2000/svg">
<path d="M10.5625 0C8.47344 0 6.43129 0.61948 4.69429 1.7801C2.9573 2.94072 1.60348 4.59036 0.804027 6.52041C0.00457657 8.45045 -0.204596 10.5742 0.20296 12.6231C0.610517 14.6721 1.6165 16.5541 3.09369 18.0313C4.57088 19.5085 6.45294 20.5145 8.50186 20.922C10.5508 21.3296 12.6746 21.1204 14.6046 20.321C16.5346 19.5215 18.1843 18.1677 19.3449 16.4307C20.5055 14.6937 21.125 12.6516 21.125 10.5625C21.122 7.76206 20.0083 5.07716 18.0281 3.09695C16.0478 1.11674 13.3629 0.00295732 10.5625 0ZM7.8843 14.625H13.2407C12.6953 16.4877 11.7813 18.1665 10.5625 19.4888C9.34375 18.1665 8.42969 16.4877 7.8843 14.625ZM7.51563 13C7.24615 11.3862 7.24615 9.73883 7.51563 8.125H13.6094C13.8789 9.73883 13.8789 11.3862 13.6094 13H7.51563ZM1.625 10.5625C1.6243 9.73826 1.73812 8.91791 1.96321 8.125H5.8693C5.62691 9.74096 5.62691 11.384 5.8693 13H1.96321C1.73812 12.2071 1.6243 11.3867 1.625 10.5625ZM13.2407 6.5H7.8843C8.42969 4.63734 9.34375 2.95852 10.5625 1.63617C11.7813 2.95852 12.6953 4.63734 13.2407 6.5ZM15.2557 8.125H19.1618C19.6127 9.71871 19.6127 11.4063 19.1618 13H15.2557C15.4981 11.384 15.4981 9.74096 15.2557 8.125ZM18.522 6.5H14.9236C14.509 4.86841 13.8126 3.32175 12.8659 1.92969C14.0754 2.25471 15.2034 2.82925 16.1775 3.61637C17.1516 4.40348 17.9502 5.38575 18.522 6.5ZM8.25907 1.92969C7.3124 3.32175 6.61605 4.86841 6.20141 6.5H2.60305C3.17477 5.38575 3.97336 4.40348 4.94746 3.61637C5.92156 2.82925 7.04961 2.25471 8.25907 1.92969ZM2.60305 14.625H6.20141C6.61605 16.2566 7.3124 17.8033 8.25907 19.1953C7.04961 18.8703 5.92156 18.2957 4.94746 17.5086C3.97336 16.7215 3.17477 15.7393 2.60305 14.625ZM12.8659 19.1953C13.8126 17.8033 14.509 16.2566 14.9236 14.625H18.522C17.9502 15.7393 17.1516 16.7215 16.1775 17.5086C15.2034 18.2957 14.0754 18.8703 12.8659 19.1953Z" fill="#00CDDF"/>
</svg>
