<svg width="17" height="17" viewBox="0 0 17 17" fill="none" xmlns="http://www.w3.org/2000/svg">
<path d="M8.40078 0.669922C12.6508 0.669922 16.1508 4.16992 16.1508 8.41992C16.1508 12.7012 12.6508 16.1699 8.40078 16.1699C4.11953 16.1699 0.650781 12.7012 0.650781 8.41992C0.650781 4.16992 4.11953 0.669922 8.40078 0.669922ZM13.4008 7.41992C13.4008 7.13867 13.5883 6.91992 13.8695 6.91992H14.432C13.8383 4.54492 11.8695 2.66992 9.40078 2.26367V2.95117C9.40078 3.23242 9.18203 3.41992 8.90078 3.41992H8.15078C7.99453 3.41992 7.83828 3.51367 7.74453 3.63867L7.49453 4.01367C7.43203 4.13867 7.30703 4.20117 7.21328 4.23242L6.74453 4.35742C6.52578 4.38867 6.40078 4.57617 6.40078 4.82617V4.95117C6.40078 5.23242 6.58828 5.41992 6.86953 5.41992H9.68203C9.80703 5.41992 9.93203 5.48242 10.0258 5.57617L10.2445 5.79492C10.3383 5.88867 10.4633 5.91992 10.5883 5.91992H10.9008C11.182 5.91992 11.3695 6.13867 11.3695 6.41992C11.3695 6.63867 11.2445 6.82617 11.057 6.88867L9.58828 7.35742C9.46328 7.41992 9.30703 7.38867 9.21328 7.35742L8.74453 7.10742C8.49453 6.98242 8.24453 6.91992 7.99453 6.91992H7.96328C7.55703 6.91992 7.21328 7.07617 6.93203 7.26367L6.05703 7.91992C5.65078 8.23242 5.36953 8.76367 5.36953 9.29492V9.73242C5.36953 10.2012 5.58828 10.6387 5.86953 10.9199C6.21328 11.2637 6.65078 11.4199 7.08828 11.4199H7.90078C8.18203 11.4199 8.40078 11.6387 8.40078 11.9199V12.8574C8.40078 13.2637 8.49453 13.6387 8.65078 13.9512C8.80703 14.2637 9.08828 14.4512 9.43203 14.4512C9.71328 14.4512 9.99453 14.2949 10.1508 14.0449L10.557 13.4512C10.7758 13.1074 11.0258 12.7949 11.3383 12.5137C11.4008 12.4512 11.4633 12.3574 11.4945 12.2637L11.6195 11.5449C11.6195 11.4824 11.6508 11.4199 11.7133 11.3574L12.2758 10.5762C12.3383 10.4824 12.4008 10.3887 12.4008 10.2637V9.91992C12.4008 9.63867 12.182 9.45117 11.9008 9.45117H11.6508C11.4945 9.45117 11.3383 9.35742 11.2445 9.23242L10.8383 8.60742C10.6508 8.32617 10.7758 7.98242 11.0883 7.85742H11.1508C11.2133 7.82617 11.2758 7.82617 11.307 7.82617C11.4008 7.82617 11.4945 7.85742 11.5883 7.88867L12.1508 8.29492C12.2133 8.32617 12.307 8.35742 12.432 8.35742C12.4945 8.35742 12.557 8.35742 12.6508 8.29492L13.1195 8.07617C13.2758 7.98242 13.4008 7.82617 13.4008 7.63867V7.41992Z" fill="#00CDDF"/>
</svg>
