<svg width="25" height="20" viewBox="0 0 25 20" fill="none" xmlns="http://www.w3.org/2000/svg">
<path d="M1.78571 0H10.7143C11.1879 0 11.6421 0.210714 11.977 0.585786C12.3119 0.960859 12.5 1.46957 12.5 2C12.5 2.53043 12.3119 3.03914 11.977 3.41421C11.6421 3.78929 11.1879 4 10.7143 4H1.78571C1.31211 4 0.85791 3.78929 0.523024 3.41421C0.188137 3.03914 0 2.53043 0 2C0 1.46957 0.188137 0.960859 0.523024 0.585786C0.85791 0.210714 1.31211 0 1.78571 0ZM14.2857 16H23.2143C23.6879 16 24.1421 16.2107 24.477 16.5858C24.8119 16.9609 25 17.4696 25 18C25 18.5304 24.8119 19.0391 24.477 19.4142C24.1421 19.7893 23.6879 20 23.2143 20H14.2857C13.8121 20 13.3579 19.7893 13.023 19.4142C12.6881 19.0391 12.5 18.5304 12.5 18C12.5 17.4696 12.6881 16.9609 13.023 16.5858C13.3579 16.2107 13.8121 16 14.2857 16ZM1.78571 8H23.2143C23.6879 8 24.1421 8.21071 24.477 8.58579C24.8119 8.96086 25 9.46957 25 10C25 10.5304 24.8119 11.0391 24.477 11.4142C24.1421 11.7893 23.6879 12 23.2143 12H1.78571C1.31211 12 0.85791 11.7893 0.523024 11.4142C0.188137 11.0391 0 10.5304 0 10C0 9.46957 0.188137 8.96086 0.523024 8.58579C0.85791 8.21071 1.31211 8 1.78571 8Z" fill="black"/>
</svg>
