<svg width="13" height="16" viewBox="0 0 13 16" fill="none" xmlns="http://www.w3.org/2000/svg">
<path d="M12.3594 3.87081C12.5156 4.02706 12.6496 4.23911 12.7612 4.50697C12.8728 4.77482 12.9286 5.02036 12.9286 5.24357V14.8864C12.9286 15.1096 12.8504 15.2994 12.6942 15.4556C12.5379 15.6119 12.3482 15.69 12.125 15.69H0.874998C0.651784 15.69 0.462051 15.6119 0.305801 15.4556C0.149551 15.2994 0.0714264 15.1096 0.0714264 14.8864V1.49357C0.0714264 1.27036 0.149551 1.08063 0.305801 0.924377C0.462051 0.768127 0.651784 0.690002 0.874998 0.690002H8.375C8.59821 0.690002 8.84375 0.745806 9.1116 0.857413C9.37946 0.96902 9.59152 1.10295 9.74777 1.2592L12.3594 3.87081ZM8.64285 1.8284V4.97572H11.7902C11.7344 4.81389 11.673 4.69949 11.606 4.63252L8.98605 2.01255C8.91908 1.94558 8.80468 1.8842 8.64285 1.8284ZM11.8571 14.6186V6.04714H8.375C8.15178 6.04714 7.96205 5.96902 7.8058 5.81277C7.64955 5.65652 7.57143 5.46679 7.57143 5.24357V1.76143H1.14285V14.6186H11.8571ZM3.28571 7.38643C3.28571 7.30831 3.31082 7.24413 3.36105 7.19391C3.41127 7.14369 3.47544 7.11857 3.55357 7.11857H9.44643C9.52455 7.11857 9.58873 7.14369 9.63895 7.19391C9.68917 7.24413 9.71428 7.30831 9.71428 7.38643V7.92214C9.71428 8.00027 9.68917 8.06444 9.63895 8.11467C9.58873 8.16489 9.52455 8.19 9.44643 8.19H3.55357C3.47544 8.19 3.41127 8.16489 3.36105 8.11467C3.31082 8.06444 3.28571 8.00027 3.28571 7.92214V7.38643ZM9.44643 9.26143C9.52455 9.26143 9.58873 9.28654 9.63895 9.33677C9.68917 9.38699 9.71428 9.45116 9.71428 9.52929V10.065C9.71428 10.1431 9.68917 10.2073 9.63895 10.2575C9.58873 10.3077 9.52455 10.3329 9.44643 10.3329H3.55357C3.47544 10.3329 3.41127 10.3077 3.36105 10.2575C3.31082 10.2073 3.28571 10.1431 3.28571 10.065V9.52929C3.28571 9.45116 3.31082 9.38699 3.36105 9.33677C3.41127 9.28654 3.47544 9.26143 3.55357 9.26143H9.44643ZM9.44643 11.4043C9.52455 11.4043 9.58873 11.4294 9.63895 11.4796C9.68917 11.5298 9.71428 11.594 9.71428 11.6721V12.2079C9.71428 12.286 9.68917 12.3502 9.63895 12.4004C9.58873 12.4506 9.52455 12.4757 9.44643 12.4757H3.55357C3.47544 12.4757 3.41127 12.4506 3.36105 12.4004C3.31082 12.3502 3.28571 12.286 3.28571 12.2079V11.6721C3.28571 11.594 3.31082 11.5298 3.36105 11.4796C3.41127 11.4294 3.47544 11.4043 3.55357 11.4043H9.44643Z" fill="#566E8B"/>
</svg>
