<svg width="24" height="27" viewBox="0 0 24 27" fill="none" xmlns="http://www.w3.org/2000/svg">
<path d="M22.5 3.282V2.69C22.5 1.863 21.827 1.19 21 1.19H12.1915C11.9785 0.591502 11.4155 0.190002 10.7785 0.190002H6.222C5.5845 0.190002 5.021 0.591502 4.809 1.19H3C2.173 1.19 1.5 1.863 1.5 2.69V3.282C0.9195 3.4895 0.5 4.039 0.5 4.69V6.69V7.19V20.69C0.5 21.517 1.173 22.19 2 22.19H5.5V24.69C5.5 25.517 6.173 26.19 7 26.19H17C17.827 26.19 18.5 25.517 18.5 24.69V22.19H22C22.827 22.19 23.5 21.517 23.5 20.69V7.19V6.69V4.69C23.5 4.039 23.0805 3.4895 22.5 3.282ZM21.5 2.69V3.19H13.22C13.005 3.19 12.8145 3.053 12.7465 2.8485L12.527 2.19H21C21.2755 2.19 21.5 2.414 21.5 2.69ZM3 2.19H4.473L4.2535 2.8485C4.1855 3.053 3.995 3.19 3.78 3.19H2.5V2.69C2.5 2.414 2.7245 2.19 3 2.19ZM1.5 4.69C1.5 4.414 1.7245 4.19 2 4.19H3.78C4.426 4.19 4.9975 3.778 5.202 3.165L5.746 1.5325C5.8145 1.3275 6.0055 1.19 6.2215 1.19H10.778C10.994 1.19 11.185 1.3275 11.2535 1.533L11.7975 3.1655C12.0025 3.778 12.574 4.19 13.22 4.19H22C22.2755 4.19 22.5 4.414 22.5 4.69V6.19H1.5V4.69ZM17 25.19H7C6.7245 25.19 6.5 24.966 6.5 24.69V11.69C6.5 11.414 6.7245 11.19 7 11.19H14.5V12.69C14.5 13.517 15.173 14.19 16 14.19H17.5V24.69C17.5 24.966 17.2755 25.19 17 25.19ZM15.5 11.897L16.793 13.19H16C15.7245 13.19 15.5 12.966 15.5 12.69V11.897ZM22 21.19H18.5V14.104C18.5 13.7035 18.344 13.3265 18.0605 13.0435L15.6465 10.6295C15.3635 10.3465 14.9865 10.19 14.5855 10.19H7C6.173 10.19 5.5 10.863 5.5 11.69V21.19H2C1.7245 21.19 1.5 20.966 1.5 20.69V7.19H22.5V20.69C22.5 20.966 22.2755 21.19 22 21.19Z" fill="url(#paint0_linear_85_3009)"/>
<defs>
<linearGradient id="paint0_linear_85_3009" x1="12" y1="-0.434998" x2="12" y2="26.981" gradientUnits="userSpaceOnUse">
<stop stop-color="#1A6DFF"/>
<stop offset="1" stop-color="#C822FF"/>
</linearGradient>
</defs>
</svg>
