<svg width="20" height="21" viewBox="0 0 20 21" fill="none" xmlns="http://www.w3.org/2000/svg">
<path d="M7.79758 0C3.4867 0 0 3.64875 0 8.16C0 12.6712 3.4867 16.32 7.79758 16.32C9.33667 16.32 10.7611 15.8475 11.9687 15.045L17.6019 20.94L19.5513 18.9L13.9898 13.095C14.9896 11.7225 15.5952 10.0219 15.5952 8.16C15.5952 3.64875 12.1085 0 7.79758 0ZM7.79758 1.92C11.0997 1.92 13.7604 4.70437 13.7604 8.16C13.7604 11.6156 11.0997 14.4 7.79758 14.4C4.49544 14.4 1.83473 11.6156 1.83473 8.16C1.83473 4.70437 4.49544 1.92 7.79758 1.92Z" fill="#00CDDF"/>
</svg>
